<svg xmlns="http://www.w3.org/2000/svg" width="22" height="18" viewBox="0 0 22 18"><path fill="#CDFF00" d="M10.054347,0 L13.7756183,0 C14.4894719,0 15.0681646,0.578692697 15.0681646,1.29254632 L15.0681646,6.95997312 C15.0681646,7.67382673 15.6468573,8.25251943 16.3607109,8.25251943 L20.1637225,8.25251943 C20.8775762,8.25251943 21.4562688,8.83121213 21.4562688,9.54506575 L21.4562688,16.2214563 C21.4562688,16.9353099 20.8775762,17.5140026 20.1637225,17.5140026 L16.7196022,17.5140026 C14.742149,17.5140026 13.1391063,15.91096 13.1391063,13.9335067 L13.1391063,11.2333377 C13.1391063,10.7471466 12.7449706,10.3530109 12.2587795,10.3530109 L12.0071414,10.3530109 C11.6102451,10.3530109 11.2353527,10.5353569 10.9903234,10.8475865 L6.14683353,17.0194269 C5.9018043,17.3316566 5.52691187,17.5140026 5.13001556,17.5140026 L1.09866437,17.5140026 C0.491888793,17.5140026 0,17.0221138 0,16.4153382 L0,12.3840119 C0,12.1081905 0.0928638658,11.8404014 0.263627193,11.6237972 L9.03930297,0.492320323 C9.28440129,0.181426229 9.65845773,0 10.054347,0 Z"/></svg>