
<svg width="150" height="25" viewBox="0 0 2321 271" version="1.1" xmlns="http://www.w3.org/2000/svg" xmlns:xlink="http://www.w3.org/1999/xlink">
    <g id="Page-1" stroke="none" stroke-width="1" fill="none" fill-rule="evenodd">
        <g id="kuest-docs-dark">
            <path d="M155.574263,0 L213.154734,0 C224.200429,-2.13162821e-14 233.154734,8.954305 233.154734,20 L233.154734,107.693984 C233.154734,118.739679 242.109039,127.693984 253.154734,127.693984 L312,127.693984 C323.045695,127.693984 332,136.648289 332,147.693984 L332,251 C332,262.045695 323.045695,271 312,271 L258.707978,271 C228.110185,271 203.305772,246.195588 203.305772,215.597794 L203.305772,173.817179 C203.305772,166.294182 197.207179,160.195589 189.684182,160.195589 L185.790501,160.195589 C179.649192,160.195589 173.848357,163.017089 170.056938,167.848322 L95.1120041,263.347266 C91.3205852,268.1785 85.5197497,271 79.3784407,271 L17,271 C7.61115925,271 3.55271368e-15,263.388841 0,254 L0,191.621944 C2.84217094e-14,187.354067 1.43691355,183.210477 4.07919143,179.858889 L139.868148,7.61783646 C143.660636,2.80726852 149.448536,-1.42108547e-14 155.574263,0 Z" id="Rectangle" fill="#CDFF00"></path>
            <path d="M1491,267.494179 L1491,0 L1562.9592,0 C1607.16942,0 1641.09137,11.6860715 1664.72503,35.0582147 C1688.35869,58.430358 1700.17552,91.735662 1700.17552,134.974127 C1700.17552,177.277706 1688.2999,209.940275 1664.54866,232.961837 C1640.79743,255.983399 1606.81668,267.494179 1562.60646,267.494179 L1491,267.494179 Z M1562.60646,245.758085 C1597.64541,245.758085 1625.33559,237.168823 1645.67701,219.990298 C1666.01842,202.811772 1676.18912,174.473049 1676.18912,134.974127 C1676.18912,96.1763691 1666.31237,67.6039241 1646.55886,49.2567917 C1626.80535,30.9096594 1598.9388,21.7360931 1562.9592,21.7360931 L1515.33914,21.7360931 L1515.33914,245.758085 L1562.60646,245.758085 Z M1827.86783,271 C1810.23077,271 1794.35742,266.676154 1780.24777,258.028461 C1766.13812,249.380767 1755.08557,237.402545 1747.0901,222.09379 C1739.09463,206.785036 1735.0969,189.548082 1735.0969,170.382924 C1735.0969,151.68521 1739.09463,134.857267 1747.0901,119.899094 C1755.08557,104.940922 1766.13812,93.1379906 1780.24777,84.4902975 C1794.35742,75.8426045 1810.23077,71.5187581 1827.86783,71.5187581 C1845.50489,71.5187581 1861.43704,75.8426045 1875.66426,84.4902975 C1889.89148,93.1379906 1901.06162,104.940922 1909.17467,119.899094 C1917.28772,134.857267 1921.34424,151.68521 1921.34424,170.382924 C1921.34424,189.31436 1917.34651,206.434454 1909.35104,221.743208 C1901.35557,237.051963 1890.24422,249.088616 1876.017,257.853169 C1861.78978,266.617723 1845.74005,271 1827.86783,271 Z M1827.86783,250.666235 C1841.03683,250.666235 1853.03003,247.160414 1863.84743,240.148771 C1874.66483,233.137128 1883.13062,223.55455 1889.24479,211.401035 C1895.35897,199.24752 1898.41606,185.574816 1898.41606,170.382924 C1898.41606,155.658473 1895.35897,142.336352 1889.24479,130.416559 C1883.13062,118.496766 1874.72361,109.089479 1864.0238,102.194696 C1853.32399,95.2999137 1841.27199,91.8525226 1827.86783,91.8525226 C1814.69883,91.8525226 1802.76441,95.2414835 1792.0646,102.019405 C1781.36479,108.797326 1773.01657,118.204615 1767.01997,130.241268 C1761.02337,142.277921 1758.02507,155.658473 1758.02507,170.382924 C1758.02507,185.574816 1761.08217,199.305951 1767.19635,211.576326 C1773.31052,223.846701 1781.65873,233.429279 1792.24097,240.324062 C1802.8232,247.218845 1814.69883,250.666235 1827.86783,250.666235 Z M2047.97833,271 C2030.34127,271 2014.46791,266.676154 2000.35827,258.028461 C1986.24862,249.380767 1975.25485,237.402545 1967.37697,222.09379 C1959.49908,206.785036 1955.56014,189.548082 1955.56014,170.382924 C1955.56014,151.68521 1959.49908,134.857267 1967.37697,119.899094 C1975.25485,104.940922 1986.24862,93.1379906 2000.35827,84.4902975 C2014.46791,75.8426045 2030.34127,71.5187581 2047.97833,71.5187581 C2068.90763,71.5187581 2086.77986,76.894351 2101.59499,87.6455369 C2116.41011,98.3967228 2126.0517,112.887451 2130.51976,131.117723 L2105.82788,131.117723 C2102.30047,119.19793 2095.30444,109.673781 2084.83978,102.545278 C2074.37512,95.4167745 2062.08797,91.8525226 2047.97833,91.8525226 C2034.80933,91.8525226 2022.9337,95.2414835 2012.35147,102.019405 C2001.76923,108.797326 1993.47981,118.146184 1987.48321,130.065977 C1981.48661,141.98577 1978.48831,155.424752 1978.48831,170.382924 C1978.48831,185.808538 1981.48661,199.598102 1987.48321,211.751617 C1993.47981,223.905132 2001.76923,233.429279 2012.35147,240.324062 C2022.9337,247.218845 2034.80933,250.666235 2047.97833,250.666235 C2063.02862,250.666235 2075.90367,246.634541 2086.60348,238.571151 C2097.3033,230.507762 2104.06417,219.931867 2106.8861,206.843467 L2131.93073,206.843467 C2127.933,226.476067 2118.2914,242.076973 2103.00595,253.646184 C2087.7205,265.215395 2069.37796,271 2047.97833,271 Z M2247.62983,271 C2223.17312,271 2203.59598,265.332255 2188.89843,253.996766 C2174.20087,242.661277 2165.55871,226.94351 2162.97195,206.843467 L2186.25287,206.843467 C2188.13415,220.633031 2194.30712,231.384217 2204.77178,239.097025 C2215.23644,246.809832 2229.8752,250.666235 2248.68806,250.666235 C2263.9735,250.666235 2276.0255,247.627856 2284.84403,241.5511 C2293.66256,235.474343 2298.07182,226.94351 2298.07182,215.958603 C2298.07182,207.310909 2295.42626,200.474557 2290.13515,195.449547 C2284.84403,190.424537 2278.31832,186.684994 2270.55801,184.230918 C2262.79771,181.776843 2252.33304,179.264338 2239.16405,176.693402 C2224.34892,173.655023 2212.35572,170.616646 2203.18445,167.578266 C2194.01317,164.539887 2186.25287,159.631737 2179.90353,152.853816 C2173.55419,146.075895 2170.37952,136.843898 2170.37952,125.157827 C2170.37952,108.329884 2176.78765,95.183053 2189.60391,85.7173351 C2202.42017,76.2516171 2218.94022,71.5187581 2239.16405,71.5187581 C2259.8582,71.5187581 2276.84856,76.894351 2290.13515,87.6455369 C2303.42174,98.3967228 2311.59356,112.887451 2314.65066,131.117723 L2291.72248,131.117723 C2289.60603,118.496766 2283.96218,108.797326 2274.79091,102.019405 C2265.61963,95.2414835 2253.74401,91.8525226 2239.16405,91.8525226 C2224.81923,91.8525226 2213.59031,94.5987494 2205.47726,100.091203 C2197.36422,105.583657 2193.30769,113.121173 2193.30769,122.703752 C2193.30769,129.949117 2195.71809,135.792151 2200.53889,140.232859 C2205.35969,144.673567 2211.35629,148.004097 2218.52869,150.22445 C2225.70109,152.444803 2235.51906,154.723587 2247.98258,157.060802 C2263.73835,160.332902 2276.43704,163.605003 2286.07862,166.877102 C2295.72021,170.149202 2303.95085,175.524796 2310.77051,183.003881 C2317.59016,190.482966 2321,200.76671 2321,213.85511 C2321,231.384217 2314.59186,245.290643 2301.77561,255.574386 C2288.95935,265.858128 2270.91075,271 2247.62983,271 Z" id="Shape" fill="#52525C" fill-rule="nonzero"></path>
            <g id="Group" transform="translate(429.000000, 0.000000)" fill="#FAFAFA" fill-rule="nonzero">
                <polygon id="Path" points="50.5860939 267.148579 0 267.148579 0 0 50.5860939 0 50.5860939 118.693798 145.083728 0 206.911176 0 100.118311 128.847545 210.424099 267.148579 147.542774 267.148579 50.5860939 143.202842"></polygon>
                <path d="M293.680379,271 C263.235044,271 242.742992,260.145995 232.204223,238.437984 C228.925495,231.902239 226.700643,224.72459 225.529669,216.905039 C224.358695,209.085487 223.773207,198.056417 223.773207,183.817829 L223.773207,70.7260982 L271.19767,70.7260982 L271.19767,184.167959 C271.19767,194.204996 271.958804,202.316322 273.48107,208.501938 C275.003336,214.687554 277.403835,219.647717 280.682563,223.382429 C286.30324,229.217916 294.617159,232.135659 305.624317,232.135659 C319.207621,232.135659 329.278,228.167529 335.835457,220.231266 C339.816769,215.562877 342.685657,209.377261 344.442119,201.674419 C346.19858,193.971576 347.076811,183.584409 347.076811,170.51292 L347.076811,70.7260982 L394.501274,70.7260982 L394.501274,267.148579 L347.076811,267.148579 L347.076811,242.289406 C339.816769,252.326443 332.029791,259.620801 323.715872,264.172481 C315.401953,268.72416 305.390122,271 293.680379,271 Z M530.100109,271 C510.193544,271 492.628928,266.68174 477.406261,258.04522 C462.183595,249.408699 450.415302,237.445952 442.101383,222.156977 C433.787465,206.868001 429.630506,189.536606 429.630506,170.162791 C429.630506,152.189492 433.319075,135.324935 440.696214,119.569121 C448.073353,103.813307 459.19761,91.0335917 474.068984,81.2299742 C488.940359,71.4263566 507.149012,66.5245478 528.69494,66.5245478 C546.493751,66.5245478 562.887392,70.2009044 577.875865,77.5536176 C592.864337,84.9063307 604.925373,96.2271748 614.058973,111.51615 C623.192574,126.805125 627.759374,145.770456 627.759374,168.412145 L627.759374,178.565891 L478.811431,178.565891 C479.514015,186.735572 481.973062,194.438415 486.188569,201.674419 C490.872466,210.777778 497.13718,217.838717 504.982708,222.857235 C512.828236,227.875753 521.78619,230.385013 531.856571,230.385013 C542.629536,230.385013 551.880233,227.642335 559.608664,222.156977 C567.337095,216.671619 572.840675,209.610681 576.119403,200.97416 L624.597743,200.97416 C618.274481,221.748492 607.150224,238.613049 591.224973,251.567829 C575.299721,264.52261 554.924767,271 530.100109,271 Z M579.281034,143.202842 C578.344254,135.73342 575.885208,129.664513 571.903895,124.996124 C567.454192,118.22696 561.599321,113.033376 554.339279,109.415375 C547.079237,105.797373 538.999514,103.988372 530.100109,103.988372 C521.200704,103.988372 513.179529,105.739018 506.036585,109.24031 C498.893642,112.741602 493.097319,117.99354 488.647616,124.996124 C484.432108,130.131352 481.855965,136.200258 480.919185,143.202842 L579.281034,143.202842 Z M747.901347,271 C723.54508,271 702.467541,265.164513 684.66873,253.49354 C666.869918,241.822567 656.448247,224.316107 653.403713,200.97416 L700.125592,200.97416 C703.170126,211.478036 708.790803,219.589363 716.987623,225.30814 C725.184443,231.026916 735.37192,233.886305 747.550055,233.886305 C757.854629,233.886305 766.227097,231.902239 772.667455,227.934109 C779.107814,223.965978 782.327994,218.363911 782.327994,211.127907 C782.327994,203.191645 778.522328,197.472868 770.910994,193.971576 C763.29966,190.470284 751.531367,187.202412 735.606116,184.167959 C720.383449,181.133505 707.736926,177.865633 697.666545,174.364341 C687.596165,170.863049 679.048052,165.202627 672.022206,157.383075 C664.99636,149.563523 661.483436,138.884582 661.483436,125.346253 C661.483436,105.972438 668.684929,91.325366 683.087914,81.4050388 C697.490899,71.4847115 715.69955,66.5245478 737.71387,66.5245478 C760.899163,66.5245478 780.161691,72.3600345 795.501456,84.0310078 C810.841221,95.701981 820.267565,112.158053 823.780488,133.399225 L779.166363,133.399225 C776.59022,123.128768 771.555029,115.600991 764.060794,110.815891 C756.566558,106.030792 747.667152,103.638243 737.362577,103.638243 C727.994782,103.638243 720.559095,105.447244 715.055515,109.065245 C709.551935,112.683247 706.800146,117.526701 706.800146,123.595607 C706.800146,130.831611 710.430166,135.966839 717.690207,139.001292 C724.950249,142.035745 736.425797,145.070198 752.116855,148.104651 C768.276301,151.139104 781.449763,154.348622 791.637241,157.733204 C801.824718,161.117787 810.607026,166.778208 817.984165,174.71447 C825.361303,182.650733 829.049873,193.621447 829.049873,207.626615 C829.049873,227.00043 821.84838,242.406115 807.445395,253.843669 C793.04241,265.281224 773.194394,271 747.901347,271 Z M925.65526,267.148579 C894.975732,267.148579 879.635967,252.793282 879.635967,224.082687 L879.635967,108.540052 L850.478704,108.540052 L850.478704,70.7260982 L879.635967,70.7260982 L879.635967,0 L927.06043,0 L927.06043,70.7260982 L965,70.7260982 L965,108.540052 L927.06043,108.540052 L927.06043,209.72739 C927.06043,215.796296 928.055757,220.347975 930.046414,223.382429 C932.037071,226.416883 936.428225,227.934109 943.219876,227.934109 L964.648708,227.934109 L964.648708,267.148579 L925.65526,267.148579 Z" id="Shape"></path>
            </g>
        </g>
    </g>
</svg>
